<svg width="1123" height="882" viewBox="0 0 1123 882" fill="none" xmlns="http://www.w3.org/2000/svg">
<circle cx="43" cy="465" r="5" fill="#17BF69"/>
<circle cx="974" cy="110" r="50" fill="#17BF69"/>
<circle cx="694" cy="490" r="30" fill="#17BF69"/>
<circle cx="465" cy="686" r="10" fill="#FFCC00"/>
<circle r="5" transform="matrix(-1 0 0 1 774 259)" fill="#FFCC00"/>
<circle r="50" transform="matrix(-1 0 0 1 502 204)" fill="#041705"/>
<circle r="30" transform="matrix(-1 0 0 1 123 284)" fill="#FFCC00"/>
<circle r="10" transform="matrix(-1 0 0 1 352 480)" fill="#041705"/>
<circle cx="1093" cy="645" r="30" fill="#FFCC00"/>
<circle cx="864" cy="841" r="10" fill="#041705"/>
<circle r="10" transform="matrix(-1 0 0 1 751 635)" fill="#041705"/>
<circle cx="352" cy="676" r="30" fill="#041705"/>
<circle cx="1040" cy="563" r="10" fill="#041705"/>
<circle r="10" transform="matrix(-1 0 0 1 927 357)" fill="#FFCC00"/>
<circle cx="927" cy="553" r="30" fill="#FFCC00"/>
<circle cx="502" cy="450" r="30" fill="#FFCC00"/>
<circle cx="123" cy="872" r="10" fill="#17BF69"/>
<circle r="10" transform="matrix(-1 0 0 1 10 666)" fill="#041705"/>
<circle cx="505" cy="30" r="30" fill="#FFCC00"/>
<circle cx="276" cy="226" r="10" fill="#17BF69"/>
<circle r="10" transform="matrix(-1 0 0 1 163 20)" fill="#041705"/>
</svg>
